<?xml version="1.0" encoding="utf-8"?>
<!-- Generator: Adobe Illustrator 24.0.3, SVG Export Plug-In . SVG Version: 6.00 Build 0)  -->
<svg version="1.1" id="Layer_1" xmlns="http://www.w3.org/2000/svg" xmlns:xlink="http://www.w3.org/1999/xlink" x="0px" y="0px"
	 viewBox="0 0 621.2 624.2" style="enable-background:new 0 0 621.2 624.2;" xml:space="preserve">
<style type="text/css">
	.st0{fill-rule:evenodd;clip-rule:evenodd;fill:#40BFC1;fill-opacity:0.85;stroke:#000000;}
	.st1{fill-rule:evenodd;clip-rule:evenodd;fill:#2F8D8F;stroke:#000000;}
</style>
<g>
	<title>Layer 1</title>
	<path id="svg_1" class="st0" d="M307.5,276.3c57.1-63.6,90.8-149.6,73.7-235.8c-6.9-38.6-57.6-54.8-84.4-25.6
		c-33.5,29.1-24.4,66-21.5,113.5C276.4,179.7,292.7,227.4,307.5,276.3z"/>
	<path id="svg_3" class="st0" d="M336.1,326.8c31.9,79.3,94.1,147.5,179,170.2c37.7,10.9,74.6-27.5,60.2-64.4
		c-11.3-42.9-48.5-51.1-92.3-69.4C436.6,341.5,386.6,335.1,336.1,326.8z"/>
	<path id="svg_7" class="st0" d="M275.7,302.9c-28.1-80.7-87.1-151.8-170.8-178.5c-37.1-12.6-75.8,24-63.2,61.5
		c9.3,43.4,46,53.3,88.9,73.7C176.1,283.5,225.7,292.2,275.7,302.9z"/>
	<path id="svg_9" class="st1" d="M290.3,292.3c17.1-83.8,2.7-175-55.7-240.7c-25.5-29.8-77.4-18.1-85.8,20.6
		c-14.2,42,12.3,69.3,38.8,108.8C214.6,224.7,252.8,257.5,290.3,292.3z"/>
	<path id="svg_10" class="st0" d="M317.5,347.4C261.8,412.3,230,499,249.1,584.8c7.8,38.5,58.8,53.5,84.9,23.7
		c32.8-29.8,22.9-66.6,19-113.9C350.8,443.3,333.4,396,317.5,347.4z"/>
	<path id="path918" class="st0" d="M339.2,283c82.8,21.1,174.6,11.1,243.1-44c31-24,21.8-76.4-16.4-86.7
		c-41.3-16.2-69.8,9-110.5,33.6C410.3,210.6,375.7,247.2,339.2,283z"/>
	<path id="svg_4" class="st1" d="M324.8,272.8c82.1-23.9,156.1-79.1,187.1-161.3c14.5-36.4-20-76.9-58.1-66.3
		c-43.8,7-55.6,43.2-78.2,85C349.3,174.3,338,223.4,324.8,272.8z"/>
	<path id="svg_2" class="st1" d="M344.5,305c64.6,56,151.1,88.3,237,69.7c38.5-7.5,53.8-58.5,24.2-84.8
		c-29.6-33-66.4-23.3-113.8-19.6C440.6,272.3,393.2,289.3,344.5,305z"/>
	<path id="svg_6" class="st1" d="M330.4,343.1c-13.7,84.4,4.4,174.9,65.3,238.2c26.7,28.8,78.1,15,84.9-24
		c12.5-42.6-15.1-68.8-43.2-107.1C408.7,407.6,369.3,376.3,330.4,343.1z"/>
	<path id="svg_11" class="st0" d="M285,341.2c-83.5-18.5-174.9-5.6-241.6,51.7C13.1,417.9,24,470,62.5,479
		c41.8,14.9,69.5-11.2,109.4-37C216.1,415.8,249.6,378.2,285,341.2z"/>
	<path id="svg_5" class="st1" d="M302.2,347.5c-81.6,25.6-154.4,82.4-183.6,165.2c-13.8,36.7,21.6,76.5,59.5,65.1
		c43.7-7.9,54.7-44.4,76.4-86.6C279.7,446.4,290,397.1,302.2,347.5z"/>
	<path id="svg_8" class="st1" d="M275.9,325.3c-63-57.8-148.6-92.4-235-76.2c-38.7,6.5-55.4,57-26.5,84.1
		c28.7,33.8,65.8,25.1,113.2,22.7C179,355.4,226.8,339.6,275.9,325.3z"/>
	<ellipse id="svg_17" cx="312.8" cy="317.1" rx="74" ry="75"/>
</g>
</svg>
